0
SECTION
2
HEADER
9
$INSUNITS
70
4
9
$ACADVER
1
AC1014
9
$HANDSEED
5
FFFF
0
ENDSEC
0
SECTION
2
TABLES
0
TABLE
2
VPORT
5
8
100
AcDbSymbolTable
0
ENDTAB
0
TABLE
2
LTYPE
5
5
100
AcDbSymbolTable
0
LTYPE
5
14
100
AcDbSymbolTableRecord
100
AcDbLinetypeTableRecord
2
BYBLOCK
70
0
0
LTYPE
5
15
100
AcDbSymbolTableRecord
100
AcDbLinetypeTableRecord
2
BYLAYER
70
0
0
ENDTAB
0
TABLE
2
LAYER
5
2
100
AcDbSymbolTable
70
2
0
LAYER
5
50
100
AcDbSymbolTableRecord
100
AcDbLayerTableRecord
2
0
70
0
6
CONTINUOUS
0
ENDTAB
0
TABLE
2
STYLE
5
3
100
AcDbSymbolTable
70
1
0
STYLE
5
11
100
AcDbSymbolTableRecord
100
AcDbTextStyleTableRecord
2
STANDARD
70
0
0
ENDTAB
0
TABLE
2
VIEW
5
6
100
AcDbSymbolTable
70
0
0
ENDTAB
0
TABLE
2
UCS
5
7
100
AcDbSymbolTable
70
0
0
ENDTAB
0
TABLE
2
APPID
5
9
100
AcDbSymbolTable
70
2
0
APPID
5
12
100
AcDbSymbolTableRecord
100
AcDbRegAppTableRecord
2
ACAD
70
0
0
ENDTAB
0
TABLE
2
DIMSTYLE
5
A
100
AcDbSymbolTable
70
1
0
ENDTAB
0
TABLE
2
BLOCK_RECORD
5
1
100
AcDbSymbolTable
70
1
0
BLOCK_RECORD
5
1F
100
AcDbSymbolTableRecord
100
AcDbBlockTableRecord
2
*MODEL_SPACE
0
BLOCK_RECORD
5
1B
100
AcDbSymbolTableRecord
100
AcDbBlockTableRecord
2
*PAPER_SPACE
0
ENDTAB
0
ENDSEC
0
SECTION
2
BLOCKS
0
BLOCK
5
20
100
AcDbEntity
100
AcDbBlockBegin
2
*MODEL_SPACE
0
ENDBLK
5
21
100
AcDbEntity
100
AcDbBlockEnd
0
BLOCK
5
1C
100
AcDbEntity
100
AcDbBlockBegin
2
*PAPER_SPACE
0
ENDBLK
5
1D
100
AcDbEntity
100
AcDbBlockEnd
0
ENDSEC
0
SECTION
2
ENTITIES
0
LINE
5
100
100
AcDbEntity
8
0
100
AcDbLine
10
0
20
-24.999999999999993
30
0
11
0
21
-282.56000000000171
31
0
0
LINE
5
101
100
AcDbEntity
8
0
100
AcDbLine
10
38.099999999999781
20
-282.56000000000165
30
0
11
38.099999999999568
21
-26.120000000000019
31
0
0
LINE
5
102
100
AcDbEntity
8
0
100
AcDbLine
10
41.099999999999568
20
-23.120000000000029
30
0
11
60.499999999999559
21
-23.120000000000047
31
0
0
LINE
5
103
100
AcDbEntity
8
0
100
AcDbLine
10
63.499999999999552
20
-26.120000000000051
30
0
11
63.499999999999559
21
-43.246000000000038
31
0
0
LINE
5
104
100
AcDbEntity
8
0
100
AcDbLine
10
66.499999999999559
20
-46.246000000000038
30
0
11
85.899999999999551
21
-46.246000000000052
31
0
0
LINE
5
105
100
AcDbEntity
8
0
100
AcDbLine
10
88.899999999999565
20
-49.246000000000052
30
0
11
88.899999999999565
21
-63.290000000000063
31
0
0
LINE
5
106
100
AcDbEntity
8
0
100
AcDbLine
10
91.899999999999551
20
-66.290000000000063
30
0
11
111.29999999999956
21
-66.290000000000063
31
0
0
LINE
5
107
100
AcDbEntity
8
0
100
AcDbLine
10
114.29999999999957
20
-69.290000000000049
30
0
11
114.29999999999957
21
-80.777000000000044
31
0
0
LINE
5
108
100
AcDbEntity
8
0
100
AcDbLine
10
117.29999999999959
20
-83.777000000000044
30
0
11
136.69999999999956
21
-83.777000000000044
31
0
0
LINE
5
109
100
AcDbEntity
8
0
100
AcDbLine
10
139.69999999999959
20
-86.777000000000044
30
0
11
139.69999999999959
21
-96.124000000000052
31
0
0
LINE
5
110
100
AcDbEntity
8
0
100
AcDbLine
10
142.69999999999959
20
-99.124000000000052
30
0
11
162.09999999999954
21
-99.124000000000066
31
0
0
LINE
5
111
100
AcDbEntity
8
0
100
AcDbLine
10
165.09999999999957
20
-102.12400000000005
30
0
11
165.09999999999957
21
-109.66700000000009
31
0
0
LINE
5
112
100
AcDbEntity
8
0
100
AcDbLine
10
168.09999999999951
20
-112.66700000000007
30
0
11
187.49999999999955
21
-112.66700000000009
31
0
0
LINE
5
113
100
AcDbEntity
8
0
100
AcDbLine
10
190.49999999999955
20
-115.66700000000009
30
0
11
190.49999999999955
21
-121.67700000000009
31
0
0
LINE
5
114
100
AcDbEntity
8
0
100
AcDbLine
10
193.49999999999952
20
-124.67700000000008
30
0
11
212.89999999999952
21
-124.67700000000009
31
0
0
LINE
5
115
100
AcDbEntity
8
0
100
AcDbLine
10
215.89999999999952
20
-127.67700000000008
30
0
11
215.89999999999952
21
-132.37700000000009
31
0
0
LINE
5
116
100
AcDbEntity
8
0
100
AcDbLine
10
218.89999999999952
20
-135.37700000000007
30
0
11
238.29999999999953
21
-135.37700000000009
31
0
0
LINE
5
117
100
AcDbEntity
8
0
100
AcDbLine
10
241.29999999999953
20
-138.37700000000009
30
0
11
241.29999999999953
21
-141.95200000000008
31
0
0
LINE
5
118
100
AcDbEntity
8
0
100
AcDbLine
10
244.2999999999995
20
-144.95200000000008
30
0
11
263.69999999999953
21
-144.95200000000008
31
0
0
LINE
5
119
100
AcDbEntity
8
0
100
AcDbLine
10
266.69999999999953
20
-147.95200000000008
30
0
11
266.69999999999953
21
-150.55300000000008
31
0
0
LINE
5
120
100
AcDbEntity
8
0
100
AcDbLine
10
269.69999999999948
20
-153.55300000000005
30
0
11
289.09999999999951
21
-153.55300000000008
31
0
0
LINE
5
121
100
AcDbEntity
8
0
100
AcDbLine
10
292.09999999999951
20
-156.55300000000008
30
0
11
292.09999999999951
21
-282.56000000000165
31
0
0
LINE
5
122
100
AcDbEntity
8
0
100
AcDbLine
10
330.19999999999953
20
-137.80818289092727
30
0
11
330.19999999999959
21
-282.56000000000171
31
0
0
CIRCLE
5
123
100
AcDbEntity
8
0
100
AcDbCircle
10
68.499999999999559
20
-41.246000000000045
30
0
40
1.1000000000000032
0
CIRCLE
5
124
100
AcDbEntity
8
0
100
AcDbCircle
10
55.799999999999557
20
-18.120000000000051
30
0
40
1.1000000000000008
0
CIRCLE
5
125
100
AcDbEntity
8
0
100
AcDbCircle
10
43.099999999999561
20
-18.120000000000051
30
0
40
1.1000000000000032
0
CIRCLE
5
126
100
AcDbEntity
8
0
100
AcDbCircle
10
81.199999999999562
20
-41.246000000000045
30
0
40
1.0999999999999945
0
CIRCLE
5
127
100
AcDbEntity
8
0
100
AcDbCircle
10
93.899999999999565
20
-61.290000000000056
30
0
40
1.0999999999999988
0
CIRCLE
5
128
100
AcDbEntity
8
0
100
AcDbCircle
10
106.59999999999955
20
-61.290000000000056
30
0
40
1.0999999999999943
0
CIRCLE
5
129
100
AcDbEntity
8
0
100
AcDbCircle
10
119.29999999999957
20
-78.777000000000044
30
0
40
1.0999999999999934
0
CIRCLE
5
130
100
AcDbEntity
8
0
100
AcDbCircle
10
131.99999999999957
20
-78.777000000000044
30
0
40
1.0999999999999939
0
CIRCLE
5
131
100
AcDbEntity
8
0
100
AcDbCircle
10
144.69999999999959
20
-94.124000000000052
30
0
40
1.1000000000000005
0
CIRCLE
5
132
100
AcDbEntity
8
0
100
AcDbCircle
10
157.39999999999958
20
-94.124000000000052
30
0
40
1.0999999999999925
0
CIRCLE
5
133
100
AcDbEntity
8
0
100
AcDbCircle
10
170.09999999999957
20
-107.66700000000009
30
0
40
1.0999999999999943
0
CIRCLE
5
134
100
AcDbEntity
8
0
100
AcDbCircle
10
182.79999999999956
20
-107.66700000000009
30
0
40
1.1000000000000001
0
CIRCLE
5
135
100
AcDbEntity
8
0
100
AcDbCircle
10
195.49999999999955
20
-119.67700000000009
30
0
40
1.0999999999999943
0
CIRCLE
5
136
100
AcDbEntity
8
0
100
AcDbCircle
10
208.19999999999953
20
-119.67700000000009
30
0
40
1.1000000000000052
0
CIRCLE
5
137
100
AcDbEntity
8
0
100
AcDbCircle
10
220.89999999999952
20
-130.37700000000009
30
0
40
1.0999999999999943
0
CIRCLE
5
138
100
AcDbEntity
8
0
100
AcDbCircle
10
233.59999999999954
20
-130.37700000000009
30
0
40
1.0999999999999979
0
CIRCLE
5
139
100
AcDbEntity
8
0
100
AcDbCircle
10
246.29999999999953
20
-139.95200000000008
30
0
40
1.1000000000000116
0
CIRCLE
5
140
100
AcDbEntity
8
0
100
AcDbCircle
10
258.99999999999955
20
-139.95200000000008
30
0
40
1.1000000000000134
0
CIRCLE
5
141
100
AcDbEntity
8
0
100
AcDbCircle
10
271.69999999999953
20
-148.55300000000008
30
0
40
1.0999999999999963
0
CIRCLE
5
142
100
AcDbEntity
8
0
100
AcDbCircle
10
284.39999999999952
20
-148.55300000000008
30
0
40
1.0999999999999901
0
ARC
5
143
100
AcDbEntity
8
0
100
AcDbCircle
10
41.099999999999582
20
-26.120000000000051
30
0
40
3.0000000000000204
100
AcDbArc
50
90.00000000000027
51
180
0
ARC
5
144
100
AcDbEntity
8
0
100
AcDbCircle
10
60.499999999999559
20
-26.12000000000004
30
0
40
2.9999999999999893
100
AcDbArc
50
0
51
90
0
ARC
5
145
100
AcDbEntity
8
0
100
AcDbCircle
10
66.499999999999574
20
-43.246000000000031
30
0
40
3.0000000000000071
100
AcDbArc
50
180
51
269.99999999999972
0
ARC
5
146
100
AcDbEntity
8
0
100
AcDbCircle
10
85.899999999999537
20
-49.24600000000008
30
0
40
3.0000000000000249
100
AcDbArc
50
0
51
89.99999999999973
0
ARC
5
147
100
AcDbEntity
8
0
100
AcDbCircle
10
91.899999999999579
20
-63.290000000000035
30
0
40
3.0000000000000249
100
AcDbArc
50
180
51
269.99999999999943
0
ARC
5
148
100
AcDbEntity
8
0
100
AcDbCircle
10
111.29999999999954
20
-69.290000000000077
30
0
40
3.0000000000000249
100
AcDbArc
50
0
51
89.99999999999973
0
ARC
5
149
100
AcDbEntity
8
0
100
AcDbCircle
10
117.29999999999961
20
-80.777000000000001
30
0
40
3.0000000000000426
100
AcDbArc
50
180
51
269.99999999999943
0
ARC
5
150
100
AcDbEntity
8
0
100
AcDbCircle
10
136.69999999999953
20
-86.777000000000086
30
0
40
3.0000000000000426
100
AcDbArc
50
0
51
89.99999999999946
0
ARC
5
151
100
AcDbEntity
8
0
100
AcDbCircle
10
142.69999999999962
20
-96.124000000000009
30
0
40
3.0000000000000426
100
AcDbArc
50
180
51
269.99999999999943
0
ARC
5
152
100
AcDbEntity
8
0
100
AcDbCircle
10
162.09999999999954
20
-102.12400000000008
30
0
40
3.0000000000000071
100
AcDbArc
50
0
51
90
0
ARC
5
153
100
AcDbEntity
8
0
100
AcDbCircle
10
168.09999999999957
20
-109.66700000000006
30
0
40
3.0000000000000071
100
AcDbArc
50
180
51
269.99999999999892
0
ARC
5
154
100
AcDbEntity
8
0
100
AcDbCircle
10
187.49999999999955
20
-115.6670000000001
30
0
40
3.0000000000000071
100
AcDbArc
50
0
51
90
0
ARC
5
155
100
AcDbEntity
8
0
100
AcDbCircle
10
193.49999999999955
20
-121.67700000000008
30
0
40
3.0000000000000071
100
AcDbArc
50
180
51
269.99999999999943
0
ARC
5
156
100
AcDbEntity
8
0
100
AcDbCircle
10
212.89999999999952
20
-127.67700000000011
30
0
40
3.0000000000000071
100
AcDbArc
50
0
51
90
0
ARC
5
157
100
AcDbEntity
8
0
100
AcDbCircle
10
218.89999999999955
20
-132.37700000000007
30
0
40
3.0000000000000071
100
AcDbArc
50
180
51
269.99999999999943
0
ARC
5
158
100
AcDbEntity
8
0
100
AcDbCircle
10
238.29999999999953
20
-138.37700000000009
30
0
40
3.0000000000000071
100
AcDbArc
50
0
51
90
0
ARC
5
159
100
AcDbEntity
8
0
100
AcDbCircle
10
244.29999999999953
20
-141.95200000000006
30
0
40
3.0000000000000071
100
AcDbArc
50
180
51
269.99999999999943
0
ARC
5
160
100
AcDbEntity
8
0
100
AcDbCircle
10
263.69999999999953
20
-147.95200000000011
30
0
40
3.0000000000000071
100
AcDbArc
50
0
51
90
0
ARC
5
161
100
AcDbEntity
8
0
100
AcDbCircle
10
269.69999999999953
20
-150.55300000000005
30
0
40
3.0000000000000071
100
AcDbArc
50
180
51
269.99999999999892
0
ARC
5
162
100
AcDbEntity
8
0
100
AcDbCircle
10
289.09999999999951
20
-156.55300000000008
30
0
40
3.0000000000000071
100
AcDbArc
50
0
51
90
0
SPLINE
5
163
100
AcDbEntity
8
0
100
AcDbSpline
70
4
71
5
72
20
73
14
74
0
42
0.000000001
43
0.0000000001
44
0.0000000001
40
0.13412968280759591
40
0.13412968280759591
40
0.13412968280759591
40
0.13412968280759591
40
0.13412968280759591
40
0.13412968280759591
40
0.20000000000000001
40
0.30000000000000004
40
0.40000000000000002
40
0.5
40
0.59999999999999998
40
0.69999999999999996
40
0.79999999999999993
40
0.89999999999999991
40
1
40
1
40
1
40
1
40
1
40
1
41
1
41
1
41
1
41
1
41
1
41
1
41
1
41
1
41
1
41
1
41
1
41
1
41
1
41
1
10
304.75306483661058
20
-108.15570237759388
30
0
10
302.17461222546001
20
-107.75978737439502
30
0
10
295.6319210141142
20
-106.64689164911253
30
0
10
284.94150304331686
20
-104.38988314950817
30
0
10
269.7672371866048
20
-100.2063238854994
30
0
10
249.58887359854918
20
-92.885152691116119
30
0
10
226.8899463147564
20
-82.601328808393021
30
0
10
203.19208387778679
20
-69.992138408382061
30
0
10
178.58439695122422
20
-55.26501733204779
30
0
10
153.16218438017867
20
-38.64180654969023
30
0
10
132.23716758828974
20
-23.976218362518075
30
0
10
116.23612584976104
20
-12.261728904799114
30
0
10
105.43443176474594
20
-4.1393629938230392
30
0
10
100
20
0
30
0
0
LINE
5
164
100
AcDbEntity
8
0
100
AcDbLine
10
0
20
-24.999999999999993
30
0
11
-7.9936057773011271e-14
21
-24.061729470666513
31
0
0
SPLINE
5
165
100
AcDbEntity
8
0
100
AcDbSpline
70
4
71
5
72
19
73
13
74
0
42
0.000000001
43
0.0000000001
44
0.0000000001
40
0.27766930102266518
40
0.27766930102266518
40
0.27766930102266518
40
0.27766930102266518
40
0.27766930102266518
40
0.27766930102266518
40
0.30000000000000004
40
0.40000000000000002
40
0.5
40
0.59999999999999998
40
0.69999999999999996
40
0.79999999999999993
40
0.89999999999999991
40
1
40
1
40
1
40
1
40
1
40
1
41
1
41
1
41
1
41
1
41
1
41
1
41
1
41
1
41
1
41
1
41
1
41
1
41
1
10
27.766930102195069
20
15.802874520673933
30
0
10
28.213544081742512
20
15.96793310195225
30
0
10
30.660158061293586
20
16.851141400093891
30
0
10
35.106772040851091
20
18.245905286990368
30
0
10
41.553386020419453
20
19.694805788618151
30
0
10
50.000000000000455
20
20.43989427158516
30
0
10
60.000000000039208
20
19.557779278797447
30
0
10
70.000000000066919
20
16.981227788991745
30
0
10
80.000000000075289
20
12.83808552443409
30
0
10
88.00000000006105
20
8.3731143704664639
30
0
10
94.000000000036167
20
4.418381840339201
30
0
10
98.000000000013117
20
1.5169521838939941
30
0
10
100
20
0
30
0
0
ARC
5
166
100
AcDbEntity
8
0
100
AcDbCircle
10
42.499999999999929
20
-24.061729470666513
30
0
40
42.5
100
AcDbArc
50
110.2831899164231
51
180
0
ARC
5
167
100
AcDbEntity
8
0
100
AcDbCircle
10
300.19999999999959
20
-137.80818289092724
30
0
40
29.999999999999964
100
AcDbArc
50
0
51
81.270553343481239
0
LWPOLYLINE
5
168
100
AcDbEntity
8
0
100
AcDbPolyline
90
9
70
1
43
0.0
10
43.099999999999767
20
-280.48500757276975
10
43.099999999999753
20
-271.7850075727697
10
43.099999999999753
20
-264.48500757276997
42
-0.4142135623730977
10
45.099999999999767
20
-262.48500757276997
10
285.09999999999957
20
-262.48500757276975
42
-0.41421356237309509
10
287.09999999999957
20
-264.48500757276969
10
287.09999999999945
20
-280.48500757276975
42
-0.41421356237308465
10
285.09999999999957
20
-282.48500757276975
10
45.09999999999976
20
-282.48500757276975
42
-0.41421356237309509
0
LWPOLYLINE
5
169
100
AcDbEntity
8
0
100
AcDbPolyline
90
19
70
1
43
0.0
10
168.35578643762656
20
-277.72500757276975
10
161.81421356237277
20
-277.72500757276975
42
0.3178372451958531
10
161.34280904158175
20
-278.05834090610307
42
-1.5857864376268831
10
160.06666666666632
20
-276.78219853118765
42
0.31783724519588463
10
160.39999999999966
20
-276.31079401039665
10
160.39999999999966
20
-276.00949391478389
10
160.39999999999966
20
-274.54500757276975
10
160.39999999999966
20
-272.80922113514282
42
0.3178372451958531
10
160.06666666666632
20
-272.33781661435182
42
-1.5857864376268831
10
161.34280904158175
20
-271.0616742394364
42
0.3178372451958531
10
161.81421356237277
20
-271.39500757276971
10
168.35578643762656
20
-271.39500757276971
42
0.3178372451958531
10
168.82719095841759
20
-271.0616742394364
42
-1.5857864376268831
10
170.10333333333301
20
-272.33781661435182
42
0.3178372451958531
10
169.76999999999964
20
-272.80922113514282
10
169.76999999999964
20
-275.99725671405014
10
169.76999999999964
20
-276.31079401039665
42
0.31783724519588463
10
170.10333333333301
20
-276.78219853118765
42
-1.5857864376268831
10
168.82719095841759
20
-278.05834090610307
42
0.3178372451958531
0
LWPOLYLINE
5
170
100
AcDbEntity
8
0
100
AcDbPolyline
90
20
70
1
43
0.0
10
59.500000745058053
20
-60.000002980232239
10
50.500000745058067
20
-60.000002980232239
42
0.41421356237313667
10
50.00000074505806
20
-60.500002980232246
10
50.00000074505806
20
-62.563561579935403
42
0.35456798604501488
10
50.103175348232583
20
-62.690763773647419
42
-1.8452834261928239
10
49.510761538473247
20
-63.283177583406882
42
0.35456798604506251
10
49.383559344761139
20
-63.180002980232253
10
48.000000745058031
20
-63.180002980232253
42
0.41421356237311585
10
47.500000745058095
20
-63.68000298023226
10
47.500000745058095
20
-212.68000298023225
42
0.41421356237311585
10
48.000000745058031
20
-213.18000298023222
10
62.000000745058159
20
-213.18000298023222
42
0.41421356237307422
10
62.50000074505806
20
-212.68000298023225
10
62.50000074505806
20
-63.680002980232295
42
0.41421356237311585
10
62.000000745058088
20
-63.180002980232288
10
60.616442145354981
20
-63.180002980232288
42
0.35456798604504663
10
60.489239951642865
20
-63.283177583406875
42
-1.8452834261926703
10
59.896826141883466
20
-62.69076377364744
42
0.35456798604492623
10
60.00000074505806
20
-62.563561579935332
10
60.00000074505806
20
-60.500002980232246
42
0.41421356237313667
0
LINE
5
171
100
AcDbEntity
8
0
100
AcDbLine
10
294.09999999999951
20
-284.56000000000165
30
0
11
308.22999999999956
21
-284.56000000000165
31
0
0
LINE
5
172
100
AcDbEntity
8
0
100
AcDbLine
10
314.06999999999954
20
-284.56000000000165
30
0
11
328.19999999999959
21
-284.56000000000165
31
0
0
LINE
5
173
100
AcDbEntity
8
0
100
AcDbLine
10
1.9999999999999996
20
-284.56000000000165
30
0
11
16.129999999999889
21
-284.56000000000165
31
0
0
LINE
5
174
100
AcDbEntity
8
0
100
AcDbLine
10
21.969999999999889
20
-284.56000000000165
30
0
11
36.099999999999774
21
-284.56000000000165
31
0
0
ARC
5
175
100
AcDbEntity
8
0
100
AcDbCircle
10
328.19999999999948
20
-282.56000000000154
30
0
40
2.0000000000000995
100
AcDbArc
50
270.00000000000324
51
360
0
ARC
5
176
100
AcDbEntity
8
0
100
AcDbCircle
10
294.09999999999951
20
-282.56000000000165
30
0
40
1.9999999999999929
100
AcDbArc
50
180
51
270
0
ARC
5
177
100
AcDbEntity
8
0
100
AcDbCircle
10
36.099999999999781
20
-282.56000000000165
30
0
40
1.9999999999999929
100
AcDbArc
50
-90.000000000000199
51
0
0
ARC
5
178
100
AcDbEntity
8
0
100
AcDbCircle
10
2.0000000000000058
20
-282.56000000000165
30
0
40
2.0000000000000058
100
AcDbArc
50
180
51
269.99999999999983
0
LINE
5
179
100
AcDbEntity
8
0
100
AcDbLine
10
21.969999999999889
20
-284.56000000000165
30
0
11
21.969999999999889
21
-270.97421356237481
31
0
0
LINE
5
180
100
AcDbEntity
8
0
100
AcDbLine
10
16.129999999999889
20
-284.56000000000165
30
0
11
16.129999999999889
21
-270.97421356237476
31
0
0
LINE
5
181
100
AcDbEntity
8
0
100
AcDbLine
10
17.544213562372981
20
-269.56000000000165
30
0
11
20.555786437626786
21
-269.56000000000165
31
0
0
ARC
5
182
100
AcDbEntity
8
0
100
AcDbCircle
10
16.129999999999889
20
-269.56000000000165
30
0
40
1.0000000000000087
100
AcDbArc
50
19.471220634489626
51
250.52877936551042
0
ARC
5
183
100
AcDbEntity
8
0
100
AcDbCircle
10
21.969999999999889
20
-269.56000000000165
30
0
40
1.0000000000000091
100
AcDbArc
50
-70.528779365510232
51
160.52877936551096
0
ARC
5
184
100
AcDbEntity
8
0
100
AcDbCircle
10
17.544213562373024
20
-269.06000000000165
30
0
40
0.50000000000004274
100
AcDbArc
50
199.47122063449132
51
269.99999999999511
0
ARC
5
185
100
AcDbEntity
8
0
100
AcDbCircle
10
15.629999999999967
20
-270.9742135623747
30
0
40
0.49999999999992273
100
AcDbArc
50
0
51
70.52877936551377
0
ARC
5
186
100
AcDbEntity
8
0
100
AcDbCircle
10
20.555786437626754
20
-269.06000000000165
30
0
40
0.50000000000000711
100
AcDbArc
50
270.00000000000369
51
340.5287793655076
0
ARC
5
187
100
AcDbEntity
8
0
100
AcDbCircle
10
22.46999999999997
20
-270.97421356237481
30
0
40
0.50000000000008282
100
AcDbArc
50
109.47122063449878
51
180
0
LINE
5
188
100
AcDbEntity
8
0
100
AcDbLine
10
308.22999999999956
20
-284.56000000000165
30
0
11
308.22999999999956
21
-270.9742135623747
31
0
0
LINE
5
189
100
AcDbEntity
8
0
100
AcDbLine
10
314.06999999999954
20
-284.56000000000165
30
0
11
314.06999999999954
21
-270.97421356237476
31
0
0
LINE
5
190
100
AcDbEntity
8
0
100
AcDbLine
10
312.65578643762643
20
-269.56000000000165
30
0
11
309.64421356237267
21
-269.56000000000165
31
0
0
ARC
5
191
100
AcDbEntity
8
0
100
AcDbCircle
10
308.22999999999956
20
-269.56000000000165
30
0
40
0.99999999999998146
100
AcDbArc
50
19.471220634489875
51
250.52877936551013
0
ARC
5
192
100
AcDbEntity
8
0
100
AcDbCircle
10
314.06999999999954
20
-269.56000000000165
30
0
40
0.99999999999998146
100
AcDbArc
50
-70.52877936550702
51
160.52877936551013
0
ARC
5
193
100
AcDbEntity
8
0
100
AcDbCircle
10
309.64421356237256
20
-269.06000000000182
30
0
40
0.49999999999987049
100
AcDbArc
50
199.47122063447779
51
270.00000000001302
0
ARC
5
194
100
AcDbEntity
8
0
100
AcDbCircle
10
307.72999999999968
20
-270.9742135623747
30
0
40
0.49999999999990052
100
AcDbArc
50
0
51
70.528779365518247
0
ARC
5
195
100
AcDbEntity
8
0
100
AcDbCircle
10
312.65578643762655
20
-269.06000000000182
30
0
40
0.499999999999865
100
AcDbArc
50
269.99999999998698
51
340.52877936552221
0
ARC
5
196
100
AcDbEntity
8
0
100
AcDbCircle
10
314.56999999999942
20
-270.97421356237464
30
0
40
0.49999999999987049
100
AcDbArc
50
109.47122063447779
51
180
0
LINE
5
197
100
AcDbEntity
8
0
100
AcDbLine
10
169.48355859970277
20
-277.72500757276975
30
0
11
169.76999999999964
21
-277.72500757276975
31
0
0
LWPOLYLINE
5
198
100
AcDbEntity
8
0
100
AcDbPolyline
90
18
70
1
43
0.0
10
243.59390850010126
20
-229.11005884882442
10
93.593908500101222
20
-229.11005884882442
10
93.593908500101264
20
-219.11005884882442
42
-0.41421356237309342
10
113.59390850010122
20
-199.11005884882451
10
164.59390850010124
20
-199.11005884882442
42
-0.41421356237313667
10
165.59390850010124
20
-200.11005884882445
10
165.59390850010121
20
-212.69584528645134
42
-0.31783724519577605
10
165.26057516676786
20
-213.16724980724223
42
1.5857864376269455
10
166.53671754168343
20
-214.44339218215774
42
-0.31783724519575446
10
167.00812206247448
20
-214.11005884882442
10
170.17969493772813
20
-214.11005884882442
42
-0.31783724519575446
10
170.65109945851918
20
-214.44339218215774
42
1.5857864376269315
10
171.92724183343461
20
-213.16724980724231
42
-0.31783724519564693
10
171.59390850010126
20
-212.69584528645134
10
171.59390850010126
20
-200.11005884882445
42
-0.41421356237312629
10
172.59390850010124
20
-199.11005884882442
10
223.59390850010126
20
-199.11005884882442
42
-0.41421356237309448
10
243.59390850010124
20
-219.11005884882442
0
LWPOLYLINE
5
199
100
AcDbEntity
8
0
100
AcDbPolyline
90
18
70
1
43
0.0
10
243.22218055028412
20
-196.02627131509863
10
243.22218055028412
20
-186.02627131509863
42
0.41421356237309509
10
223.22218055028412
20
-166.02627131509863
10
172.22218055028412
20
-166.02627131509863
42
0.41421356237313667
10
171.22218055028412
20
-167.02627131509865
10
171.22218055028412
20
-179.61205775272555
42
0.31783724519564693
10
171.55551388361746
20
-180.08346227351663
42
-1.5857864376268913
10
170.27937150870207
20
-181.35960464843194
42
0.31783724519575446
10
169.80796698791102
20
-181.02627131509863
10
166.63639411265734
20
-181.02627131509863
42
0.31783724519575446
10
166.16498959186629
20
-181.35960464843194
42
-1.585786437626975
10
164.88884721695075
20
-180.08346227351643
42
0.31783724519575762
10
165.22218055028412
20
-179.61205775272555
10
165.22218055028412
20
-167.02627131509865
42
0.41421356237313667
10
164.22218055028409
20
-166.02627131509863
10
113.22218055028409
20
-166.02627131509871
42
0.41421356237309342
10
93.222180550284094
20
-186.02627131509863
10
93.222180550284094
20
-196.02627131509863
0
ENDSEC
0
SECTION
2
OBJECTS
0
DICTIONARY
5
C
100
AcDbDictionary
3
ACAD_GROUP
350
D
3
ACAD_MLINESTYLE
350
17
0
DICTIONARY
5
D
100
AcDbDictionary
0
DICTIONARY
5
1A
330
C
100
AcDbDictionary
0
DICTIONARY
5
17
100
AcDbDictionary
0
ENDSEC
0
EOF
